<?xml version="1.0" encoding="UTF-8" standalone="no"?>
<!-- Created with Inkscape (http://www.inkscape.org/) -->

<svg
   version="1.1"
   id="svg1"
   width="613.02734"
   height="339.41867"
   viewBox="0 0 613.02734 339.41867"
   xmlns="http://www.w3.org/2000/svg"
   xmlns:svg="http://www.w3.org/2000/svg">
  <defs
     id="defs1" />
  <g
     id="g1"
     transform="translate(-296,-187.58134)">
    <path
       style="fill:#ffffff;fill-opacity:1"
       d="m 296,494 v -33 h 7 7 v 26.5 26.5 h 13.5 13.5 v 6.5 6.5 H 316.5 296 Z m 57.23634,0.25 L 353.5,461.5 h 7 7 l 0.26366,32.75 0.26367,32.75 H 360.5 352.97267 Z m 52.12021,30.72426 c -6.76107,-2.67441 -13.48862,-8.71382 -17.48238,-15.69419 -4.38696,-7.6676 -5.12402,-17.98642 -1.89586,-26.54161 2.88822,-7.65428 9.97946,-14.88786 18.5068,-18.87829 6.01312,-2.81387 7.23437,-3.03048 15.27526,-2.70928 7.23809,0.28913 9.72531,0.84855 14.47671,3.25609 3.15539,1.59884 6.48263,3.73081 7.39387,4.73771 1.56346,1.72761 1.40185,2.08567 -2.86893,6.35644 l -4.52571,4.52571 -5.11986,-2.65628 c -10.04127,-5.20959 -21.16739,-2.65676 -27.45531,6.29948 -8.93106,12.72102 1.33328,30.29261 17.71381,30.32438 1.58123,0.003 5.48833,-1.16723 8.68244,-2.60066 l 5.80749,-2.60625 4.59559,3.84144 c 2.52757,2.11279 4.47048,4.48306 4.31756,5.26727 -0.15292,0.78421 -3.201,3.02941 -6.77353,4.98932 -5.97969,3.28051 -7.25025,3.58571 -16,3.84337 -7.67034,0.22587 -10.49707,-0.11274 -14.64795,-1.75465 z M 459,494 v -33 h 21.54569 21.54569 l -0.29569,6.75 -0.29569,6.75 -13.75,0.27822 -13.75,0.27822 V 481.02822 487 h 10 10 v 7 7 h -10 -10 v 6.5 6.5 h 14 14 v 6.5 6.5 H 480.5 459 Z m 78.66538,31.4413 c -14.06459,-5.11729 -23.67466,-19.73028 -22.34432,-33.97658 1.16045,-12.42696 7.40812,-21.24471 19.17199,-27.05874 7.21377,-3.56523 7.60094,-3.6397 16.69599,-3.21107 7.53132,0.35494 10.28717,0.94106 14.4184,3.06656 10.27832,5.28812 16.32007,12.8817 18.39664,23.12182 3.02274,14.90592 -3.11415,27.94758 -16.8577,35.82474 -5.23073,2.99801 -6.38251,3.25068 -15.64638,3.43235 -6.51717,0.12781 -11.33553,-0.28981 -13.83462,-1.19908 z m 17.77111,-12.52962 c 5.58128,-1.40539 10.84101,-5.78775 13.47372,-11.22619 3.23027,-6.67285 2.28227,-13.92642 -2.57443,-19.69829 -9.03148,-10.73331 -26.18154,-9.75931 -34.06198,1.93448 -3.02509,4.48893 -3.2149,15.0227 -0.3552,19.71249 2.43376,3.99128 7.59151,7.91502 12.0814,9.19088 4.73587,1.34576 6.38635,1.35826 11.43649,0.0866 z M 637,494 v -33 h 21 21 v 6.97178 6.97178 L 665.25,475.22178 651.5,475.5 v 5.5 5.5 l 10.29488,0.28548 10.29488,0.28548 -0.29488,6.71452 L 671.5,500.5 l -9.6425,0.28492 c -11.44278,0.33811 -10.82351,-0.54508 -10.84385,15.46508 L 651,527 h -7 -7 z m 43.56373,30.75 c 0.38417,-1.2375 2.17935,-5.20646 3.98927,-8.81992 1.80992,-3.61346 5.30453,-11.03846 7.76578,-16.5 2.46126,-5.46154 7.44641,-16.12778 11.07812,-23.70276 3.6317,-7.57497 6.6031,-14.21247 6.6031,-14.75 0,-1.88422 1.87221,-0.95482 2.5637,1.27268 0.38416,1.2375 4.01449,9.15027 8.06739,17.58394 4.0529,8.43367 7.36891,15.49724 7.36891,15.69683 0,0.19958 3.15,6.90427 7,14.89931 3.85,7.99503 7,14.99396 7,15.55317 0,0.59651 -3.02922,1.01675 -7.32906,1.01675 h -7.32907 L 725,522 722.65813,517 H 711.07321 699.4883 l -2.2938,5 -2.29379,5 h -7.51774 c -7.33648,0 -7.5009,-0.0543 -6.81924,-2.25 z M 716,503.93538 c 0,-2.05202 -4.24246,-10.90357 -5.00122,-10.43463 C 710.05627,494.08326 706,502.59404 706,503.9891 c 0,0.556 2.25,1.0109 5,1.0109 2.86899,0 5,-0.45374 5,-1.06462 z M 758,494 c 0,-18.15 0.38812,-33 0.8625,-33 1.41864,0 7.57724,5.22769 23.86158,20.25475 8.49042,7.83489 15.85085,14.39525 16.35652,14.57858 0.53677,0.19461 0.9194,-6.9151 0.9194,-17.08333 0,-9.57917 0.18576,-17.60417 0.4128,-17.83333 0.22705,-0.22917 3.37705,-0.26577 7,-0.0813 L 814,461.17065 v 32.91468 C 814,512.1884 813.75651,527 813.4589,527 812.72008,527 789.98205,507.0634 782.17508,499.57048 772.3126,490.10474 773,489.36454 773,509.45031 V 527 h -7.5 -7.5 z m 89,7 v -26 h -8.54569 -8.54569 l 0.29569,-6.75 0.29569,-6.75 h 23.5 23.5 l 0.29569,6.75 0.29569,6.75 h -7.9783 c -7.1767,0 -8.04398,0.20691 -8.63192,2.05936 -0.35949,1.13264 -0.56682,11.14514 -0.46074,22.25 0.10608,11.10485 0.14488,21.87814 0.0862,23.94064 L 861,527 h -7 -7 z m 47.23634,-6.73903 0.26366,-32.73904 7,-0.011 7,-0.011 0.26366,32.75 0.26367,32.75 H 901.5 893.97267 Z M 574.96144,453.19928 C 562.91127,446.93049 546.65042,438.20373 541.69642,435.34684 538.50446,433.50608 535.62258,432 535.29225,432 c -0.33033,0 -9.64372,-4.88761 -20.69643,-10.86135 C 503.54312,415.16491 488.3125,406.99603 480.75,402.98558 L 467,395.69386 v -69.27354 -69.27354 l 5.25,-2.94407 c 2.8875,-1.61924 9.75,-5.31389 15.25,-8.21033 5.5,-2.89644 16.075,-8.51401 23.5,-12.4835 7.425,-3.96948 18,-9.58866 23.5,-12.48707 5.5,-2.8984 10.45,-5.61394 11,-6.03452 0.55,-0.42059 7.3,-3.9743 15,-7.89715 7.7,-3.92284 15.8,-8.1666 18,-9.43059 2.2,-1.26398 7.26158,-4.04865 11.24795,-6.18817 l 7.24794,-3.89003 5.25206,2.67051 c 2.88863,1.46879 9.07705,4.73889 13.75205,7.26691 9.33461,5.0477 23.83585,12.78135 37,19.73244 4.675,2.46855 10.22019,5.45756 12.32263,6.64224 2.10245,1.18469 8.99386,4.86492 15.31425,8.17831 6.32039,3.31338 15.1752,7.99652 19.67737,10.40697 4.50216,2.41044 12.46075,6.62708 17.68575,9.3703 l 9.5,4.98766 0.24324,69.07338 0.24324,69.07337 -3.74324,2.32315 c -2.05878,1.27773 -8.46824,4.71719 -14.24324,7.64324 -5.775,2.92605 -10.95,5.64209 -11.5,6.03565 -0.55,0.39355 -5.95,3.32652 -12,6.51771 -6.05,3.19118 -17.075,9.04721 -24.5,13.01339 -7.425,3.96618 -17.55,9.35553 -22.5,11.97633 -4.95,2.62081 -11.40199,6.09256 -14.33776,7.715 -2.93577,1.62244 -5.5115,2.77616 -5.72385,2.56381 -0.21235,-0.21235 -0.69008,-6.07241 -1.06162,-13.02236 l -0.67553,-12.63627 2.89938,-0.57011 c 5.44906,-1.07144 19.83125,-5.98719 25.86917,-8.84193 15.35768,-7.26113 34.39965,-23.66968 42.65166,-36.75314 4.82445,-7.64911 9.79429,-18.90387 12.05602,-27.3022 2.57159,-9.54896 3.43948,-26.5021 1.86214,-36.37455 C 697.99747,285.71279 675.9186,257.53599 645.15787,243.40312 629.74923,236.3237 615.8331,233.48068 597,233.56464 c -12.76419,0.0569 -15.93653,0.43095 -26.5,3.12457 -39.42711,10.0537 -67.88187,38.1563 -76.49785,75.55113 -2.90429,12.60511 -2.50243,29.96129 0.97846,42.25966 7.02938,24.83559 25.36153,47.38361 49.01939,60.29244 12.07323,6.58771 23.56176,10.49215 35.5,12.06488 4.93349,0.64993 4.99928,0.70514 4.94613,4.15068 -0.0296,1.9206 -0.31834,5.067 -0.64158,6.992 -2.24523,13.37091 -3.14092,17 -4.19576,17 -0.65225,0 -2.74356,-0.81033 -4.64735,-1.80072 z m 6.95041,-39.62076 c -0.23181,-0.23182 -2.51476,-0.66767 -5.07321,-0.96857 -2.55845,-0.30089 -7.05628,-1.5072 -9.99518,-2.68068 -2.9389,-1.17348 -7.01354,-2.75441 -9.05474,-3.51318 C 552.81298,404.56649 541.76293,397.32142 535,391.47445 523.63741,381.65078 513.47282,365.78224 509.39438,351.5 c -2.45311,-8.59052 -2.46906,-32.57979 -0.0275,-41.41342 3.74658,-13.5554 13.55767,-29.21526 24.2988,-38.78427 36.4453,-32.46821 93.47657,-32.48754 128.25294,-0.0435 8.24607,7.69303 12.81956,13.52475 17.87133,22.78793 7.62993,13.99064 8.62886,18.27502 8.61586,36.95323 -0.0109,15.594 -0.16495,16.91182 -2.80643,24 -1.53722,4.125 -4.85513,11.1 -7.37315,15.5 -5.92015,10.34493 -20.84732,25.43982 -30.72619,31.07144 -8.5355,4.8658 -22.03182,10.26245 -27.32978,10.92811 -3.85617,0.48451 -3.91855,0.43969 -4.52912,-3.25414 -0.3405,-2.05997 -0.62404,-6.69456 -0.63009,-10.29907 -0.018,-10.70112 6.51136,-21.40222 16.49735,-27.03797 l 5.26246,-2.96994 -1.15237,-3.90285 c -1.52586,-5.16776 -2.22431,-5.70225 -4.61921,-3.5349 -1.10715,1.00197 -2.84545,2.31171 -3.86288,2.91054 -1.01742,0.59883 -3.79602,2.56155 -6.17465,4.3616 -2.37864,1.80005 -4.8056,3.10109 -5.39325,2.89119 -1.07563,-0.3842 -1.08673,-3.64077 -0.0386,-11.33147 1.17924,-8.65288 11.85009,-18.31849 22.4411,-20.32703 3.00233,-0.56938 5.8043,-1.38075 6.22659,-1.80304 C 645.14974,337.25026 643.99456,324 642.95933,324 c -2.2264,0 -19.37271,12.77638 -25.04823,18.6644 -7.5187,7.80022 -11.23657,13.25951 -16.85448,24.74901 C 593.40604,383.06004 590,392.5306 590,398.15655 590,400.27045 589.68147,402 589.29216,402 c -0.38931,0 -2.39006,-1.64265 -4.4461,-3.65032 -3.66147,-3.57533 -3.79074,-3.61594 -6.29217,-1.97695 -3.19538,2.0937 -3.18675,2.6965 0.0816,5.70296 3.06485,2.81922 8.36447,9.83578 8.36447,11.07435 0,0.85421 -4.30028,1.21634 -5.08815,0.42848 z m 10.97033,-45.65762 c 7.47079,-14.07727 11.13385,-19.57947 18.22081,-27.36914 10.38749,-11.41745 23.44285,-21.18829 35.59747,-26.6417 3.71383,-1.66628 6.9523,-3.22948 7.19659,-3.47378 0.64917,-0.64917 -4.05549,-5.43947 -5.32136,-5.41823 -0.59163,0.01 -5.57569,3.38652 -11.07569,7.50354 -12.83441,9.60719 -18.31719,11.79203 -29.5,11.75549 -11.93029,-0.039 -18.32259,-2.61802 -26.36719,-10.63811 -6.00245,-5.98416 -8.10187,-9.15603 -20.12472,-30.4051 -6.90956,-12.21188 -9.69116,-15.48957 -12.77299,-15.05098 -3.2345,0.46031 -2.70125,2.42409 3.5233,12.97512 6.83535,11.58638 15.91349,29.00343 15.39004,29.52688 -0.21449,0.2145 -1.57504,-0.14996 -3.02344,-0.80989 -1.4484,-0.65993 -2.92965,-0.90368 -3.29167,-0.54167 -1.50206,1.50206 1.86492,5.576 8.0451,9.7343 5.36418,3.60927 6.98561,5.35721 8.73137,9.4126 3.48566,8.09718 7.68924,26.426 8.45589,36.87013 0.46557,6.3426 1.09534,9.59596 1.81133,9.3573 0.60368,-0.20123 2.631,-3.25527 4.50516,-6.78676 z"
       id="path1" />
  </g>
</svg>
